<svg width="20" height="20" viewBox="0 0 20 20" fill="none" xmlns="http://www.w3.org/2000/svg">
<g clip-path="url(#clip0_820_173)">
<path d="M11.7679 10.0002L19.6342 2.13472C20.1225 1.64642 20.1225 0.854731 19.6342 0.366469C19.1459 -0.121831 18.3543 -0.121831 17.866 0.366469L10.0005 8.23279L2.13496 0.366469C1.64666 -0.121831 0.854975 -0.121831 0.366714 0.366469C-0.121548 0.85477 -0.121587 1.64646 0.366714 2.13472L8.23303 10.0002L0.366714 17.8658C-0.121587 18.3541 -0.121587 19.1457 0.366714 19.634C0.855014 20.1223 1.6467 20.1223 2.13496 19.634L10.0005 11.7676L17.866 19.634C18.3543 20.1223 19.1459 20.1223 19.6342 19.634C20.1225 19.1457 20.1225 18.354 19.6342 17.8658L11.7679 10.0002Z" fill="#DF6951"/>
</g>
<defs>
<clipPath id="clip0_820_173">
<rect width="20" height="20" fill="white"/>
</clipPath>
</defs>
</svg>
